<?xml version="1.0" encoding="utf-8"?>
<!-- Generator: Adobe Illustrator 26.5.0, SVG Export Plug-In . SVG Version: 6.00 Build 0)  -->
<svg version="1.1" id="Camada_1" xmlns="http://www.w3.org/2000/svg" xmlns:xlink="http://www.w3.org/1999/xlink" x="0px" y="0px"
	 viewBox="0 0 50 50" style="enable-background:new 0 0 50 50;" xml:space="preserve">
<style type="text/css">
	.st0{fill-rule:evenodd;clip-rule:evenodd;fill:#23386B;}
	.st1{fill-rule:evenodd;clip-rule:evenodd;fill:#EC6711;}
</style>
<g>
	<path class="st0" d="M28.44,14.33c-2.6-0.1-4.9,0.5-6.8,1.8c-4.1,2.7-8.4,11.3-5.1,15.9c2.9,3.9,9.5,3,12.9,0.3
		c2-1.6,3.5-4.1,4.4-7.5h11c-0.2,0.9-0.5,1.8-0.9,2.6c-5,11.8-23.4,17.1-33.9,9.8c-6.3-4.4-5.8-12.3-2.4-18.3
		c3.1-5.4,8.2-7.9,14.2-8.9c2.6-0.4,5.3-0.6,8.1-0.5L28.44,14.33z"/>
	<path class="st1" d="M30.94,9.43c3.1,0.2,6.1,1.1,8.6,2.6c4.3,2.6,5.3,6.9,4.9,11.3h-17.9L30.94,9.43z"/>
</g>
</svg>
