<?xml version="1.0" encoding="utf-8"?>
<!-- Generator: Adobe Illustrator 26.5.0, SVG Export Plug-In . SVG Version: 6.00 Build 0)  -->
<svg version="1.1" id="Camada_1" xmlns="http://www.w3.org/2000/svg" xmlns:xlink="http://www.w3.org/1999/xlink" x="0px" y="0px"
	 viewBox="0 0 225.6 69.9" style="enable-background:new 0 0 225.6 69.9;" xml:space="preserve">
<style type="text/css">
	.st0{fill-rule:evenodd;clip-rule:evenodd;fill:#22376C;}
	.st1{fill-rule:evenodd;clip-rule:evenodd;fill:#EC660C;}
</style>
<g>
	<polygon class="st0" points="195.6,38.7 225.6,38.7 223.8,44.7 214.1,44.7 206.6,69.8 195.7,69.8 203.2,44.7 193.7,44.7 	"/>
	<polygon class="st0" points="166.3,38.7 193.6,38.7 191.7,44.7 175.3,44.7 173.4,51.2 188.5,51.2 186.9,56.3 171.9,56.3 
		169.6,63.8 186,63.8 184.1,69.8 156.9,69.8 	"/>
	<polygon class="st0" points="132.2,38.7 142.9,38.7 139.2,50.9 154.2,38.7 165.3,38.7 148.6,52.3 155.9,69.8 144.8,69.8 138.3,54 
		133.5,69.8 122.7,69.8 	"/>
	<path class="st0" d="M117.2,6.1l-7.6,25.1H98.8L108.2,0h19.5c4.4,0.3,7.7,1.4,9.4,3.6c3,3.8,0.8,9.9-2.6,12.8
		c-2.8,2.5-7.1,3.7-12.6,3.8l-4.5,0l-1.7-5c3.7,0,5.9-0.3,8.2-1.3c2.9-1.2,5.9-5.1,1.9-7.1C124,5.8,120.7,5.8,117.2,6.1"/>
	<path class="st0" d="M105.3,44.8l-7.4,25.1H87.1l9.4-31.2H116c4.3,0.3,7.7,1.5,9.4,3.8c2.8,3.8,0.8,9.9-2.6,12.8
		c-1.7,1.5-3.9,2.5-6.5,3.1l3.9,11.5h-10.8l-5.4-16l4.3-0.2c1.8-0.1,2.9-0.5,4.1-1c2.9-1.2,5.6-5.1,1.7-7.1
		C112.2,44.7,108.8,44.6,105.3,44.8"/>
	<path class="st0" d="M152.6,6.1l-7.4,25.1h-10.8L143.8,0h19.5c4.3,0.3,7.7,1.5,9.4,3.8c2.8,3.8,0.8,9.9-2.6,12.8
		c-1.7,1.5-3.9,2.5-6.5,3.1l3.9,11.5h-10.8l-5.4-16l4.3-0.2c1.8-0.1,2.9-0.5,4.1-1c2.9-1.2,5.6-5.1,1.7-7.1
		C159.4,6,156.1,6,152.6,6.1"/>
	<path class="st0" d="M197.7,5c-2.6-0.1-4.9,0.5-6.8,1.8c-4.1,2.7-8.4,11.3-5.1,15.9c2.9,3.9,9.5,3,12.9,0.3c2-1.6,3.5-4.1,4.4-7.5
		h11c-0.2,0.9-0.5,1.8-0.9,2.6c-5,11.8-23.4,17.1-33.9,9.8c-6.3-4.4-5.8-12.3-2.4-18.3c3.1-5.4,8.2-7.9,14.2-8.9
		c2.6-0.4,5.3-0.6,8.1-0.5L197.7,5z"/>
	<path class="st1" d="M200.2,0.1c3.1,0.2,6.1,1.1,8.6,2.6c4.3,2.6,5.3,6.9,4.9,11.3h-17.9L200.2,0.1z"/>
	<polygon class="st0" points="45.7,69.8 69.8,38.7 83.1,38.7 86.1,69.8 75.8,69.8 74.2,47.2 56.9,69.8 	"/>
	<polygon class="st0" points="9.4,38.7 0,69.9 9.1,69.9 15.1,49.9 17.4,69.8 17.9,69.8 26.5,69.8 26.9,69.8 42,49.5 35.8,69.9 
		44.9,69.9 54.4,38.7 41,38.7 25.3,59.8 22.8,38.7 	"/>
</g>
</svg>
